<?xml version="1.0" encoding="UTF-8"?>
<svg id="Layer_1" xmlns="http://www.w3.org/2000/svg" version="1.1" viewBox="0 0 575.7 210.8">
  <!-- Generator: Adobe Illustrator 29.7.1, SVG Export Plug-In . SVG Version: 2.1.1 Build 8)  -->
  <defs>
    <style>
      .st0 {
        fill: none;
      }

      .st1 {
        fill: #4d4d4d;
      }

      .st2 {
        fill: #fff;
      }

      .st3 {
        fill: #dcad55;
      }
    </style>
  </defs>
  <g id="Layer_2">
    <g id="Layer_1-2">
      <rect class="st0" y="0" width="575.7" height="210.8"/>
      <path class="st1" d="M241.6,140.7h-16.4l-13.3-58h16.5l6.6,41,.3,3.4,1.2-3.4,11-22c.8,1.9,1.4,3.9,1.8,5.9.5,2.4.8,4.9.9,7.4,0,2.7-.1,5.4-.6,8.1-.5,2.7-1.4,5.3-2.8,7.7l-5.3,9.9Z"/>
      <polygon class="st1" points="262.5 140.7 249 82.7 265.6 82.7 272.2 123.8 272.6 127.1 273.8 123.8 290.4 82.7 306.2 83.5 279.2 140.7 262.5 140.7"/>
      <polygon class="st1" points="308.2 140.7 315.3 82.7 331 82.7 323.9 140.7 308.2 140.7"/>
      <path class="st1" d="M316,65.9c.3-2.6,1.6-4.9,3.5-6.7,1.9-1.8,4.3-2.8,6.9-2.8,1.2,0,2.4.2,3.5.7,1,.5,1.9,1.2,2.7,2,.8.9,1.3,1.9,1.6,3,.3,1.2.4,2.5.2,3.7-.6,5.3-5.1,9.2-10.4,9.2-2.4.1-4.6-.9-6.2-2.6-1.5-1.8-2.2-4.2-1.8-6.6Z"/>
      <path class="st1" d="M378.6,81.3c3.7,0,7.3.7,10.5,2.3,2.9,1.5,5.4,3.7,7.2,6.4,1.9,3,3.2,6.3,3.8,9.8.7,4.1.8,8.2.3,12.3-.5,3.9-1.7,7.8-3.5,11.3-1.7,3.5-3.9,6.6-6.6,9.4-2.5,2.6-5.5,4.8-8.7,6.4-3,1.5-6.2,2.4-9.6,2.4-1.9,0-3.7-.1-5.5-.4-2.3-.4-4.6-.9-6.9-1.6,1.1-2.3,2.5-4.5,4.2-6.3,1.3-1.5,3.1-2.4,5.1-2.6,4.7-.3,8.2-2.1,10.5-5.6,2.5-4,4-8.4,4.4-13.1.3-2.5.3-4.9,0-7.4-.2-2.1-.7-4.2-1.6-6.1-.7-1.6-1.8-3.1-3.2-4.2-1.4-1.1-3.1-1.6-4.8-1.6-4.2,0-8.9,2.6-14,7.8l-8.2,67-15.5-.8,8.5-69.5c.2-2.1.3-4.3.4-6.7,0-2.5,0-5-.4-7.4l12.1-.6c.9.6,1.6,1.5,2.1,2.5.5,1.1,1,2.1,1.3,3.2v2.3l2-2.2c2.6-2.3,5.6-4.2,8.8-5.7,2.2-1,4.6-1.5,7.1-1.5Z"/>
      <path class="st1" d="M463,126.6c-.3,2.2-.5,4.4-.5,6.7,0,2.5.1,5,.5,7.5h-12c-.6-.4-1.1-.9-1.4-1.5-.5-.9-1-1.8-1.3-2.8-.4-1.2-.7-2.4-.8-3.6-.2-1.3-.2-2.7,0-4l4.3-35.1c-1.3-.4-2.7-.6-4.1-.7-1.2-.1-2.3-.2-3.1-.2-2.4,0-4.8.5-7,1.5-2.1,1-4,2.5-5.4,4.3-1.6,2-2.9,4.2-3.8,6.6-1,2.7-1.7,5.6-2,8.5-.2,1.9-.3,3.7-.3,5.6,0,1.8.2,3.6.8,5.3.4,1.5,1.2,2.8,2.4,3.9,1.2,1,2.9,1.5,4.5,1.2,1.9-.2,3.8.5,5,2,1.3,1.7,2.5,3.5,3.6,5.3-2.2,1.2-4.4,2.3-6.8,3.1-2,.8-4.2,1.3-6.3,1.4-3.3.3-6.5-.4-9.3-2.1-2.6-1.6-4.8-3.9-6.4-6.5-1.7-2.8-2.9-5.9-3.5-9.1-.7-3.3-.8-6.8-.3-10.2.5-4.4,1.7-8.6,3.6-12.6,1.8-3.8,4.4-7.3,7.5-10.3,3.1-3,6.8-5.4,10.8-7,4.4-1.8,9-2.6,13.7-2.6,1.6,0,3.1,0,4.7.1s3.2.2,5,.5,3.8.6,5.9,1.1,4.5,1,7.2,1.7l-5.2,41.9Z"/>
      <path class="st1" d="M482.3,157c1.8,0,3.6-.4,5.1-1.3,1.6-1,3.1-2.4,4.3-3.9,1.5-2,2.8-4.1,3.9-6.4,1.3-2.5,2.6-5.5,4.1-8.8l23.2-53.8,15.6.8-27,55.9c-2.5,4.9-4.7,9.1-6.8,12.7-1.8,3.3-4,6.3-6.5,9-2.1,2.3-4.7,4.1-7.6,5.4-3.1,1.3-6.5,1.9-9.9,1.9-1.5,0-3.1-.2-4.8-.5-1.8-.3-3.5-.8-5.2-1.6l4.8-10.2c1.1.3,2.3.6,3.5.7,1,0,2.1.2,3.1.2Z"/>
      <path class="st1" d="M500.2,109.2c.5,2.6.5,5.3.2,8-.3,2.8-.8,5.6-1.6,8.4-.7,2.7-1.7,5.2-2.8,7.7-.9,2.1-2.1,4.1-3.4,6l-13.9-56.5h16.8l4.6,26.4Z"/>
      <circle class="st3" cx="115.2" cy="105.4" r="78.1"/>
      <path class="st2" d="M99.5,140.7h-16.4l-13.4-58.2h16.5l6.6,41.2.3,3.4,1.2-3.4,11-22.1c.8,1.9,1.4,4,1.8,6,.5,2.5.8,5,.9,7.5,0,2.7-.1,5.4-.6,8.1-.5,2.7-1.4,5.3-2.8,7.7l-5.3,9.8Z"/>
      <polygon class="st2" points="120.4 140.7 106.9 82.5 123.6 82.5 130.2 123.7 130.6 127 131.8 123.7 148.4 82.5 164.3 83.2 137.2 140.7 120.4 140.7"/>
      <path class="st2" d="M108.7,65.6c.4-2.6,1.6-5,3.6-6.7,1.9-1.8,4.3-2.8,6.9-2.8,1.2,0,2.4.2,3.5.7,1,.5,2,1.2,2.7,2,.8.9,1.3,1.9,1.6,3,.3,1.2.4,2.5.2,3.7-.3,2.6-1.5,4.9-3.4,6.6-1.9,1.7-4.4,2.7-6.9,2.6-2.4.1-4.7-.9-6.2-2.6-1.6-1.8-2.2-4.2-1.9-6.6Z"/>
    </g>
  </g>
</svg>